<svg width="160" height="160" viewBox="0 0 160 160" fill="none" xmlns="http://www.w3.org/2000/svg" role="img" aria-labelledby="title desc">
  <title id="title">MIKASTOR</title>
  <desc id="desc">Logo minyak kayu putih dengan daun eucalyptus dan tetes minyak.</desc>
  <rect width="160" height="160" rx="34" fill="#10251D"/>
  <path d="M80 24C106.51 24 128 45.49 128 72C128 103.68 101.23 126.32 80 138C58.77 126.32 32 103.68 32 72C32 45.49 53.49 24 80 24Z" fill="#F7F4EE"/>
  <path d="M80 35C100.43 35 117 51.57 117 72C117 96.43 96.36 113.89 80 122.9C63.64 113.89 43 96.43 43 72C43 51.57 59.57 35 80 35Z" fill="#EAF2EC"/>
  <path d="M80.01 48C88.19 59.7 96 70.91 96 82.13C96 92.06 88.84 100 80.01 100C71.16 100 64 92.06 64 82.13C64 70.91 71.81 59.7 80.01 48Z" fill="#176B4D"/>
  <path d="M81.02 60.5C82.62 67.2 83.44 74.16 83.44 81.3C83.44 89.12 81.93 95.36 79.96 100" stroke="#F7F4EE" stroke-width="4" stroke-linecap="round"/>
  <path d="M55 65C65.88 56.52 77.97 55.19 88.75 62.1C77.94 70.83 65.6 72.25 55 65Z" fill="#C9852F"/>
  <path d="M105 73C94.87 67.03 84.45 67.59 76.31 75.4C86.6 81.52 97.32 80.86 105 73Z" fill="#C9852F"/>
  <path d="M56 112H104" stroke="#176B4D" stroke-width="7" stroke-linecap="round"/>
  <path d="M64 124H96" stroke="#176B4D" stroke-width="7" stroke-linecap="round"/>
</svg>
